inDegrees=no
num_controls=7
num_derivatives=13
num_iterations=122
num_multipliers=7
num_parameters=0
num_slacks=7
num_states=26
objective=5.439759
objective_accelerations=0.675543
objective_balance=0.031858
objective_effort=0.241344
objective_height=4.355539
objective_ligament=0.135474
solver_duration=1281.717858
status=Solve_Succeeded
success=true
DataType=double
version=3
OpenSimVersion=4.4-2022-07-23-0e9fedc
endheader
time	/jointset/ground_pelvis/pelvis_tilt/value	/jointset/ground_pelvis/pelvis_tx/value	/jointset/ground_pelvis/pelvis_ty/value	/jointset/hip_l/hip_flexion_l/value	/jointset/hip_l/hip_adduction_l/value	/jointset/hip_l/hip_rotation_l/value	/jointset/back/lumbar_extension/value	/jointset/patellofemoral_l/patellar_flexion_l/value	/jointset/knee_l/knee_flexion_l/value	/jointset/knee_l/knee_adduction_l/value	/jointset/knee_l/knee_rotation_l/value	/jointset/ankle_l/ankle_angle_l/value	/jointset/subtalar_l/subtalar_angle_l/value	/jointset/ground_pelvis/pelvis_tilt/speed	/jointset/ground_pelvis/pelvis_tx/speed	/jointset/ground_pelvis/pelvis_ty/speed	/jointset/hip_l/hip_flexion_l/speed	/jointset/hip_l/hip_adduction_l/speed	/jointset/hip_l/hip_rotation_l/speed	/jointset/back/lumbar_extension/speed	/jointset/patellofemoral_l/patellar_flexion_l/speed	/jointset/knee_l/knee_flexion_l/speed	/jointset/knee_l/knee_adduction_l/speed	/jointset/knee_l/knee_rotation_l/speed	/jointset/ankle_l/ankle_angle_l/speed	/jointset/subtalar_l/subtalar_angle_l/speed	/forceset/tau_hip_flexion_l	/forceset/tau_hip_adduction_l	/forceset/tau_hip_rotation_l	/forceset/tau_knee_flexion_l	/forceset/tau_ankle_angle_l	/forceset/tau_subtalar_angle_l	/forceset/tau_lumbar_extension	lambda_cid13_p0	lambda_cid13_p1	lambda_cid13_p2	lambda_cid13_p3	lambda_cid13_p4	lambda_cid13_p5	lambda_cid14_p0	/jointset/ground_pelvis/pelvis_tilt/accel	/jointset/ground_pelvis/pelvis_tx/accel	/jointset/ground_pelvis/pelvis_ty/accel	/jointset/hip_l/hip_flexion_l/accel	/jointset/hip_l/hip_adduction_l/accel	/jointset/hip_l/hip_rotation_l/accel	/jointset/back/lumbar_extension/accel	/jointset/patellofemoral_l/patellar_flexion_l/accel	/jointset/knee_l/knee_flexion_l/accel	/jointset/knee_l/knee_adduction_l/accel	/jointset/knee_l/knee_rotation_l/accel	/jointset/ankle_l/ankle_angle_l/accel	/jointset/subtalar_l/subtalar_angle_l/accel	gamma_cid13_p0	gamma_cid13_p1	gamma_cid13_p2	gamma_cid13_p3	gamma_cid13_p4	gamma_cid13_p5	gamma_cid14_p0
0	-0.04229348514704413	0.07013866866938402	0.8960631449244154	0.1955292361009247	-0.3208146113264068	-0.5069088756397391	-0.137903700187828	0.07015350928391488	0.07015350928391206	-0.1745329236829188	-0.1402030968270115	-0.06701017130107029	0.005366547003031419	0	0	0	0	0	0	0	0	0	0	0	0	0	0.09123745779878617	-0.1005088872886537	-0.03385542772045616	-0.2330580795674212	0.2109388401250728	-0.01284717363418918	-0.03544575923859503	32.22632801802343	-3.916951601079609	4.690612752049397	-16.9566113479828	-519.56499776846	-82.39766492804488	-40.5331167524235	-2.734384133658556	-1.084937939272977	-0.7450559849587883	10.333583839312	-1.520998693386435	3.141765860313261	-2.567150406630465	10.76245648796763	10.76245648797293	2.59184199946875	-1.045181677122799	3.943131055936705	0.4779073708627243	9.232542548341043e-09	2.256714078583143e-07	6.680339679904046e-08	2.212548038248818e-08	-1.769955797097535e-09	-3.955340909700134e-08	3.295463477807995e-08
0.01	-0.04242258728141072	0.07008614205659408	0.8960271535717967	0.1960278683230427	-0.3208887925982262	-0.5067489008077387	-0.1380368942151136	0.07067704113946177	0.07067704113935042	-0.1744064093075564	-0.1402469902627784	-0.06681723733191369	0.005390123022894122	-0.02575409873256236	-0.01036573677437567	-0.007175270145085392	0.09922454915518668	-0.01476241970254871	0.03185350361162514	-0.02639706806239377	0.1042411529430254	0.1042411529430329	0.02519950961131534	-0.008710714760723687	0.03853053187564663	0.004766134013565596	0.09088114933818547	-0.1089357276754666	-0.03406195283920663	-0.2356678927606396	0.2117334906520882	-0.005801676840155703	-0.03462847862136862	32.71552876425795	-6.793454259313099	4.841929525573573	-18.74119049120719	-520.5960581321453	-88.64042794292047	-40.54344230752238	-2.485983451596294	-0.9914492540541608	-0.7003128264755151	9.641595912713845	-1.442839580469155	3.185923898916002	-2.639724396782229	10.18515538320109	10.18515538319881	2.468548660545832	-0.7738255978253261	3.799584172878832	0.4835620907293768	-1.670489147956402e-08	2.537128251298202e-07	1.675676291703599e-07	6.165882570494056e-08	-2.330690093463749e-07	-1.216011631166394e-07	3.668052445719633e-08
0.02	-0.04280724254481573	0.06993414653455315	0.8959200994582887	0.1975036871285565	-0.3211083932614316	-0.5062746346821824	-0.1384268068011698	0.07222902666148005	0.07222902666147916	-0.1740309911925501	-0.1403759526907989	-0.06624068406010089	0.005462879517717685	-0.05111062580678798	-0.01989378185019275	-0.01421255217788266	0.1954373166740269	-0.02908387827631343	0.06285825871639301	-0.05134371175431594	0.2056907333152981	0.2056907333152865	0.04978074796595936	-0.01701379841256646	0.07672386053130212	0.009836094992170873	0.09052484087801167	-0.1173625680622234	-0.03426847795678666	-0.2382777059537729	0.2125281411792196	0.001243819953988896	-0.03381119800392402	33.27467692362877	-9.679532568526026	4.991721080866688	-20.73491923151621	-520.6373927301931	-94.67732440936265	-40.57377492246385	-2.654869801991151	-0.9173995995613202	-0.7174583625011628	9.731227512042738	-1.432806467629619	2.972016158941805	-2.277065532536116	10.20414197381709	10.20414197381708	2.468187748134517	-0.9636554553466291	3.875690411938414	0.5386727638706398	-4.264232550746908e-08	2.817542424013261e-07	2.683318615416794e-07	1.011921710273929e-07	-4.643680628956522e-07	-2.036489171362775e-07	4.040641413631271e-08
0.03	-0.04344310882648163	0.06968980583092763	0.8957430436119982	0.1999282526021199	-0.3214689017933299	-0.5054960954835864	-0.1390587732699118	0.07478238140163883	0.07478238140170179	-0.173412683015743	-0.1405876590661925	-0.06528517450094187	0.0055872800747868	-0.07591290863062326	-0.02895813617084665	-0.02119986684139251	0.2890554512940371	-0.04293065392593216	0.09271495884157357	-0.07484026729817898	0.3045183783253514	0.3045183783253524	0.07378107783239089	-0.02525403677150269	0.1141692511284106	0.0150263731931753	0.08520570147787747	-0.1096204996491753	-0.03302797909085144	-0.2305322412224387	0.203032965068358	2.176194070740313e-05	-0.02964293950904699	30.19363656147086	-8.795380226426371	5.0632826826019	-18.49628218752696	-520.5900888451641	-92.21067856505744	-40.62287202438018	-2.370452795009646	-0.8984995447167543	-0.6896492906022927	9.114046053381401	-1.347619610416503	2.972272831368586	-2.354553360862857	9.652792208635278	9.652792208637218	2.351066559234504	-0.7431679523319481	3.647656760587029	0.5064827598282696	-6.069157109024693e-08	2.816986215079371e-07	3.550053576933774e-07	1.213896705399226e-07	-6.233013812831585e-07	-2.895663561512047e-07	4.155007216716007e-08
